<svg width="208" height="101" viewBox="0 0 208 101" fill="none" xmlns="http://www.w3.org/2000/svg">
<path d="M71.5699 46.2005L67.4474 55.4263H68.5595L72.682 46.2005H71.5699Z" fill="black"/>
<path d="M75.0044 46.2005L70.8846 55.4263H72.7027L76.8226 46.2005H75.0044Z" fill="black"/>
<path d="M78.8424 46.2005L74.7225 55.4263H77.3501L81.47 46.2005H78.8424Z" fill="black"/>
<path d="M83.1252 46.2005L79.0027 55.4263H82.5381L86.6606 46.2005H83.1252Z" fill="black"/>
<path d="M140.198 62.6775C139.451 55.1746 131.64 46.2005 123.959 46.2005H114.843C112.732 46.2005 111.191 44.1707 111.737 42.1041C118.249 17.3689 82.1062 8.09061 76.3001 32.9307C75.8191 34.992 77.3346 36.9798 79.4243 36.9798H82.039C83.4769 36.9798 84.7752 36.0226 85.1373 34.6091C88.3028 22.2546 107.87 27.9506 102.602 40.7981C101.824 42.6942 98.2236 46.2031 96.2348 46.2031H88.1477L84.0278 55.4263H121.792C126.266 55.4263 130.637 59.5803 131.061 64.0438C132.181 75.8843 115.613 77.9036 112.846 67.453C112.474 66.0474 111.191 65.0902 109.756 65.0902H106.963C104.958 65.0902 103.409 66.9338 103.797 68.9268C108.049 90.856 142.653 87.3288 140.198 62.6775Z" fill="black"/>
</svg>
