<?xml version="1.0" encoding="UTF-8"?>
<svg id="Layer_1" data-name="Layer 1" xmlns="http://www.w3.org/2000/svg" viewBox="0 0 309.33 263.11">
  <polygon points="29.27 115.16 13.33 150.34 17.63 150.34 33.57 115.16 29.27 115.16"/>
  <polygon points="42.55 115.16 26.62 150.34 33.65 150.34 49.58 115.16 42.55 115.16"/>
  <polygon points="57.39 115.16 41.46 150.34 51.62 150.34 67.55 115.16 57.39 115.16"/>
  <polygon points="73.95 115.16 58.01 150.34 71.68 150.34 87.62 115.16 73.95 115.16"/>
  <path d="M294.63,177.99c-2.89-28.61-33.09-62.83-62.79-62.83h-35.25c-8.16,0-14.12-7.74-12.01-15.62C209.76,5.22,70.01-30.16,47.56,64.56c-1.86,7.86,4,15.44,12.08,15.44h10.11c5.56,0,10.58-3.65,11.98-9.04,12.24-47.11,87.9-25.39,67.53,23.6-3.01,7.23-16.93,20.61-24.62,20.61h-31.27l-15.93,35.17h146.02c17.3,0,34.2,15.84,35.84,32.86,4.33,45.15-59.73,52.85-70.43,13-1.44-5.36-6.4-9.01-11.95-9.01h-10.8c-7.75,0-13.74,7.03-12.24,14.63,16.44,83.62,150.24,70.17,140.75-23.83Z"/>
</svg>