<?xml version="1.0" encoding="UTF-8"?>
<svg id="Layer_1" data-name="Layer 1" xmlns="http://www.w3.org/2000/svg" viewBox="0 0 113.78 81.78">
  <path d="M57.56,41.11v27.59h-9.27l-.39-5.95c-2.78,4.25-7.57,6.72-14.61,6.72-13.76,0-23.73-9.27-23.73-26.2s9.74-26.35,25.43-26.35c11.59,0,18.4,3.86,22.49,13.06l-12.29,4.87c-1.31-5.18-4.95-7.5-9.81-7.5-7.73,0-12.13,5.33-12.13,15.84s4.25,16.08,12.52,16.08c6.03,0,10.51-2.7,10.51-8.42v-.77h-12.67v-8.97h23.96Z"/>
  <path d="M101.67,27.9l-5.28,4.28c-3.06-6.65-6.73-9.25-14.15-9.25-8.03,0-12.47,3.75-12.47,8.57s3.37,7.11,14,8.95c13.54,2.29,18.35,6.58,18.35,14.38,0,8.64-7.72,14.38-19.5,14.38-10.71,0-17.74-4.67-21.26-10.94l5.28-4.28c2.68,5.81,7.88,9.48,16.14,9.48,7.8,0,13-2.91,13-8.34,0-4.36-3.29-6.88-13.92-8.72-13.61-2.37-18.51-6.5-18.51-14.23,0-8.11,7.11-14.99,18.81-14.99,9.25,0,15.6,3.67,19.5,10.71Z"/>
</svg>