<?xml version="1.0" encoding="UTF-8"?>
<svg id="Layer_1" data-name="Layer 1" xmlns="http://www.w3.org/2000/svg" viewBox="0 0 309.33 263.11">
  <defs>
    <style>
      .cls-1 {
        fill: #fff;
      }
    </style>
  </defs>
  <polygon class="cls-1" points="26.6 115.16 10.67 150.34 14.96 150.34 30.9 115.16 26.6 115.16"/>
  <polygon class="cls-1" points="39.88 115.16 23.95 150.34 30.98 150.34 46.91 115.16 39.88 115.16"/>
  <polygon class="cls-1" points="54.73 115.16 38.79 150.34 48.95 150.34 64.88 115.16 54.73 115.16"/>
  <polygon class="cls-1" points="71.28 115.16 55.35 150.34 69.02 150.34 84.95 115.16 71.28 115.16"/>
  <path class="cls-1" d="M291.96,177.99c-2.89-28.61-33.09-62.83-62.79-62.83h-35.25c-8.16,0-14.12-7.74-12.01-15.62C207.09,5.22,67.34-30.16,44.89,64.56c-1.86,7.86,4,15.44,12.08,15.44h10.11c5.56,0,10.58-3.65,11.98-9.04,12.24-47.11,87.9-25.39,67.53,23.6-3.01,7.23-16.93,20.61-24.62,20.61h-31.27l-15.93,35.17h146.02c17.3,0,34.2,15.84,35.84,32.86,4.33,45.15-59.73,52.85-70.43,13-1.44-5.36-6.4-9.01-11.95-9.01h-10.8c-7.75,0-13.74,7.03-12.24,14.63,16.44,83.62,150.24,70.17,140.75-23.83Z"/>
</svg>