<?xml version="1.0" encoding="UTF-8"?>
<svg id="Layer_1" data-name="Layer 1" xmlns="http://www.w3.org/2000/svg" viewBox="0 0 512 122.67">
  <defs>
    <style>
      .cls-1 {
        fill: #fff;
      }
    </style>
  </defs>
  <g>
    <path class="cls-1" d="M69.73,64.76v27.59h-9.27l-.39-5.95c-2.78,4.25-7.57,6.72-14.61,6.72-13.76,0-23.73-9.27-23.73-26.2s9.74-26.35,25.43-26.35c11.59,0,18.4,3.86,22.49,13.06l-12.29,4.87c-1.31-5.18-4.95-7.5-9.81-7.5-7.73,0-12.13,5.33-12.13,15.84s4.25,16.08,12.52,16.08c6.03,0,10.51-2.7,10.51-8.42v-.77h-12.67v-8.97h23.96Z"/>
    <path class="cls-1" d="M125.92,41.35v51.01h-13.29v-20.56h-19.48v20.56h-13.29v-51.01h13.29v20.17h19.48v-20.17h13.29Z"/>
    <path class="cls-1" d="M185.04,66.85c0,16.46-9.43,26.28-24.96,26.28s-25.04-9.82-25.04-26.28,9.51-26.28,25.04-26.28,24.96,9.82,24.96,26.28ZM148.64,66.85c0,10.43,4.02,15.84,11.44,15.84s11.36-5.41,11.36-15.84-4.02-15.84-11.36-15.84-11.44,5.41-11.44,15.84Z"/>
    <path class="cls-1" d="M235.59,49.77l-7.5,8.66c-3.4-5.1-7.73-7.5-14.22-7.5-5.49,0-8.35,2.16-8.35,5.1,0,2.63,2.78,4.02,10.05,5.33,14.14,2.55,19.63,7.11,19.63,16.08,0,9.97-9.27,15.69-21.56,15.69s-18.39-3.09-23.42-8.66l6.8-9.27c4.17,5.8,9.12,7.57,15.92,7.57,5.72,0,8.5-1.7,8.5-4.64,0-2.4-2.94-3.71-9.89-5.02-12.06-2.4-19.86-5.95-19.86-15.92s7.96-16.62,21.95-16.62c9.58,0,16.08,2.63,21.95,9.2Z"/>
    <path class="cls-1" d="M285.44,51.63h-16.62v40.73h-13.29v-40.73h-16.69v-10.28h46.6v10.28Z"/>
  </g>
  <g>
    <path class="cls-1" d="M332.71,55.59l-4.78,3.88c-2.77-6.03-6.1-8.38-12.82-8.38-7.27,0-11.29,3.39-11.29,7.76s3.05,6.44,12.68,8.11c12.26,2.08,16.63,5.96,16.63,13.02,0,7.83-7,13.02-17.67,13.02-9.7,0-16.07-4.23-19.26-9.91l4.78-3.88c2.42,5.26,7.14,8.59,14.62,8.59,7.07,0,11.78-2.63,11.78-7.55,0-3.95-2.98-6.24-12.61-7.9-12.33-2.15-16.77-5.89-16.77-12.89,0-7.34,6.44-13.58,17.04-13.58,8.38,0,14.13,3.33,17.66,9.7Z"/>
    <path class="cls-1" d="M341.99,46.86c0-2.49,1.66-4.16,4.16-4.16s4.16,1.66,4.16,4.16-1.66,4.16-4.16,4.16-4.16-1.66-4.16-4.16ZM348.92,92.31h-5.54v-34.64h5.54v34.64Z"/>
    <path class="cls-1" d="M391.59,96.12c0,6.86-7.76,11.08-17.11,11.08-10.95,0-15.93-3.95-15.93-9.14,0-3.19,2.29-5.68,6.1-6.72-2.63-1.25-4.71-3.33-4.71-6.37,0-3.6,2.15-5.75,5.2-6.79-3.33-2.08-5.06-5.47-5.06-9.49,0-6.86,5.89-11.71,14.2-11.71,2.63,0,4.99.48,7.07,1.39,1.32-4.78,4.57-7.07,9.77-7.07l1.25,4.85c-4.64,0-7.27,1.32-8.24,3.81,2.77,2.08,4.36,5.13,4.36,8.73,0,6.86-5.89,11.71-14.2,11.71-2.01,0-3.81-.21-5.33-.62-2.77.62-3.88,2.01-3.88,4.36s1.87,3.74,4.57,3.74h11.5c6.58,0,10.46,3.26,10.46,8.24ZM386.47,96.74c0-2.49-1.66-4.09-6.86-4.09h-9.28c-4.36,0-6.65,1.66-6.65,4.3,0,3.39,3.81,5.61,11.43,5.61s11.36-2.77,11.36-5.82ZM365.82,68.69c0,4.3,3.67,7.2,8.45,7.2s8.45-2.91,8.45-7.2-3.67-7.2-8.45-7.2-8.45,2.91-8.45,7.2Z"/>
    <path class="cls-1" d="M430.18,70.14v22.17h-5.54v-20.23c0-7.69-3.74-10.25-8.52-10.25-5.06,0-10.74,3.19-10.74,12.05v18.43h-5.54v-34.64h4.85l.35,5.4c2.43-4.36,6.86-6.1,11.64-6.1,7.41,0,13.51,4.23,13.51,13.16Z"/>
    <path class="cls-1" d="M473.9,87.94l-.35,4.36c-.97.35-2.43.69-4.16.69-3.39,0-5.61-1.25-6.23-5.13-2.22,3.26-6.72,5.13-11.15,5.13-6.51,0-11.78-3.05-11.78-9.28,0-5.2,4.57-9.28,13.51-10.81l9.21-1.52v-1.94c0-4.57-2.91-7.62-8.11-7.62-4.57,0-8.04,2.22-9.91,6.58l-4.09-2.98c1.8-5.13,7.27-8.45,13.99-8.45,7.9,0,13.65,3.74,13.65,11.78v17.04c0,1.66.69,2.49,2.63,2.49.9,0,1.94-.14,2.77-.35ZM462.95,80.67v-4.78l-7.76,1.45c-6.1,1.11-9.21,3.12-9.21,6.37,0,2.91,2.36,4.43,6.3,4.43,5.54,0,10.67-2.91,10.67-7.48Z"/>
    <path class="cls-1" d="M487.2,83.03c0,3.53.9,4.64,3.74,4.64,1.87,0,3.05-.21,5.06-.97l-.9,5.33c-1.46.62-3.33.97-5.13.97-5.61,0-8.31-2.98-8.31-9.28v-41.98h5.54v41.29Z"/>
  </g>
</svg>