<?xml version="1.0" encoding="UTF-8"?>
<svg id="Layer_1" data-name="Layer 1" xmlns="http://www.w3.org/2000/svg" viewBox="0 0 309.33 151.11">
  <defs>
    <style>
      .cls-1 {
        fill: #fff;
      }
    </style>
  </defs>
  <g>
    <path class="cls-1" d="M74.75,46.35v27.59h-9.27l-.39-5.95c-2.78,4.25-7.57,6.72-14.61,6.72-13.76,0-23.73-9.27-23.73-26.2s9.74-26.35,25.43-26.35c11.59,0,18.4,3.86,22.49,13.06l-12.29,4.87c-1.31-5.18-4.95-7.5-9.81-7.5-7.73,0-12.13,5.33-12.13,15.84s4.25,16.08,12.52,16.08c6.03,0,10.51-2.7,10.51-8.42v-.77h-12.67v-8.97h23.96Z"/>
    <path class="cls-1" d="M130.93,22.94v51.01h-13.29v-20.56h-19.48v20.56h-13.29V22.94h13.29v20.17h19.48v-20.17h13.29Z"/>
    <path class="cls-1" d="M190.06,48.44c0,16.46-9.43,26.28-24.96,26.28s-25.04-9.82-25.04-26.28,9.51-26.28,25.04-26.28,24.96,9.82,24.96,26.28ZM153.66,48.44c0,10.43,4.02,15.84,11.44,15.84s11.36-5.41,11.36-15.84-4.02-15.84-11.36-15.84-11.44,5.41-11.44,15.84Z"/>
    <path class="cls-1" d="M240.61,31.36l-7.5,8.66c-3.4-5.1-7.73-7.5-14.22-7.5-5.49,0-8.35,2.16-8.35,5.1,0,2.63,2.78,4.02,10.05,5.33,14.14,2.55,19.63,7.11,19.63,16.08,0,9.97-9.27,15.69-21.56,15.69s-18.39-3.09-23.42-8.66l6.8-9.27c4.17,5.8,9.12,7.57,15.92,7.57,5.72,0,8.5-1.7,8.5-4.64,0-2.4-2.94-3.71-9.89-5.02-12.06-2.4-19.86-5.95-19.86-15.92s7.96-16.62,21.95-16.62c9.58,0,16.08,2.63,21.95,9.2Z"/>
    <path class="cls-1" d="M290.46,33.22h-16.62v40.73h-13.29v-40.73h-16.69v-10.28h46.6v10.28Z"/>
  </g>
  <g>
    <path class="cls-1" d="M57.28,92.89l-4.14,3.36c-2.4-5.22-5.28-7.26-11.1-7.26-6.3,0-9.78,2.94-9.78,6.72s2.64,5.58,10.98,7.02c10.62,1.8,14.4,5.16,14.4,11.28,0,6.78-6.06,11.28-15.3,11.28-8.4,0-13.92-3.66-16.68-8.58l4.14-3.36c2.1,4.56,6.18,7.44,12.66,7.44,6.12,0,10.2-2.28,10.2-6.54,0-3.42-2.58-5.4-10.92-6.84-10.68-1.86-14.52-5.1-14.52-11.16,0-6.36,5.58-11.76,14.76-11.76,7.26,0,12.24,2.88,15.3,8.4Z"/>
    <path class="cls-1" d="M83.87,85.33c0-2.16,1.44-3.6,3.6-3.6s3.6,1.44,3.6,3.6-1.44,3.6-3.6,3.6-3.6-1.44-3.6-3.6ZM89.86,124.69h-4.8v-30h4.8v30Z"/>
    <path class="cls-1" d="M145.36,127.99c0,5.94-6.72,9.6-14.82,9.6-9.48,0-13.8-3.42-13.8-7.92,0-2.76,1.98-4.92,5.28-5.82-2.28-1.08-4.08-2.88-4.08-5.52,0-3.12,1.86-4.98,4.5-5.88-2.88-1.8-4.38-4.74-4.38-8.22,0-5.94,5.1-10.14,12.3-10.14,2.28,0,4.32.42,6.12,1.2,1.14-4.14,3.96-6.12,8.46-6.12l1.08,4.2c-4.02,0-6.3,1.14-7.14,3.3,2.4,1.8,3.78,4.44,3.78,7.56,0,5.94-5.1,10.14-12.3,10.14-1.74,0-3.3-.18-4.62-.54-2.4.54-3.36,1.74-3.36,3.78s1.62,3.24,3.96,3.24h9.96c5.7,0,9.06,2.82,9.06,7.14ZM140.92,128.53c0-2.16-1.44-3.54-5.94-3.54h-8.04c-3.78,0-5.76,1.44-5.76,3.72,0,2.94,3.3,4.86,9.9,4.86s9.84-2.4,9.84-5.04ZM123.04,104.23c0,3.72,3.18,6.24,7.32,6.24s7.32-2.52,7.32-6.24-3.18-6.24-7.32-6.24-7.32,2.52-7.32,6.24Z"/>
    <path class="cls-1" d="M197.32,105.49v19.2h-4.8v-17.52c0-6.66-3.24-8.88-7.38-8.88-4.38,0-9.3,2.76-9.3,10.44v15.96h-4.8v-30h4.2l.3,4.68c2.1-3.78,5.94-5.28,10.08-5.28,6.42,0,11.7,3.66,11.7,11.4Z"/>
    <path class="cls-1" d="M253.72,120.91l-.3,3.78c-.84.3-2.1.6-3.6.6-2.94,0-4.86-1.08-5.4-4.44-1.92,2.82-5.82,4.44-9.66,4.44-5.64,0-10.2-2.64-10.2-8.04,0-4.5,3.96-8.04,11.7-9.36l7.98-1.32v-1.68c0-3.96-2.52-6.6-7.02-6.6-3.96,0-6.96,1.92-8.58,5.7l-3.54-2.58c1.56-4.44,6.3-7.32,12.12-7.32,6.84,0,11.82,3.24,11.82,10.2v14.76c0,1.44.6,2.16,2.28,2.16.78,0,1.68-.12,2.4-.3ZM244.24,114.61v-4.14l-6.72,1.26c-5.28.96-7.98,2.7-7.98,5.52,0,2.52,2.04,3.84,5.46,3.84,4.8,0,9.24-2.52,9.24-6.48Z"/>
    <path class="cls-1" d="M283.78,116.65c0,3.06.78,4.02,3.24,4.02,1.62,0,2.64-.18,4.38-.84l-.78,4.62c-1.26.54-2.88.84-4.44.84-4.86,0-7.2-2.58-7.2-8.04v-36.36h4.8v35.76Z"/>
  </g>
</svg>